<?xml version="1.0" encoding="UTF-8" standalone="no"?>
<!-- Created with Inkscape (http://www.inkscape.org/) -->

<svg
   xmlns:dc="http://purl.org/dc/elements/1.1/"
   xmlns:cc="http://creativecommons.org/ns#"
   xmlns:rdf="http://www.w3.org/1999/02/22-rdf-syntax-ns#"
   xmlns:svg="http://www.w3.org/2000/svg"
   xmlns="http://www.w3.org/2000/svg"
   xmlns:sodipodi="http://sodipodi.sourceforge.net/DTD/sodipodi-0.dtd"
   xmlns:inkscape="http://www.inkscape.org/namespaces/inkscape"
   version="1.1"
   id="svg982"
   width="319.47983"
   height="200">
  <metadata
     id="metadata988">
    <rdf:RDF>
      <cc:Work
         rdf:about="">
        <dc:format>image/svg+xml</dc:format>
        <dc:type
           rdf:resource="http://purl.org/dc/dcmitype/StillImage" />
      </cc:Work>
    </rdf:RDF>
  </metadata>
  <defs
     id="defs986" />
  <sodipodi:namedview
     pagecolor="#ffffff"
     bordercolor="#666666"
     borderopacity="1"
     objecttolerance="10"
     gridtolerance="10"
     guidetolerance="10"
     inkscape:pageopacity="0"
     inkscape:pageshadow="2"
     inkscape:window-width="640"
     inkscape:window-height="480"
     id="namedview984" />
  <inkscape:clipboard
     style="font-variant-east_asian:normal;opacity:1;vector-effect:none;fill:#000000;fill-opacity:1;stroke-width:3.77952756;stroke-linecap:butt;stroke-linejoin:miter;stroke-miterlimit:4;stroke-dasharray:none;stroke-dashoffset:0;stroke-opacity:1"
     min="-3.8823878,513.31589"
     max="315.59742,713.31589" />
  <g
     id="g980"
     transform="matrix(3.7795276,0,0,3.7795276,3.8823879,-409.2038)">
    <g
       id="g824"
       transform="matrix(3.3430511,0,0,3.3430511,-361.97756,-263.33878)">
      <path
         style="fill:#333333;fill-opacity:1;stroke:#333333;stroke-width:1.5;stroke-linecap:butt;stroke-linejoin:miter;stroke-miterlimit:4;stroke-dasharray:none;stroke-opacity:1"
         d="m 112.8495,112.34873 13.28977,-0.004 4.62218,3.61038 -8.17284,10.03241 -13.51889,-8.9163 z"
         id="path939"
         inkscape:connector-curvature="0"
         sodipodi:nodetypes="cccccc" />
      <path
         sodipodi:nodetypes="cccccc"
         inkscape:connector-curvature="0"
         id="path817"
         d="m 114.2784,111.9122 13.28977,-0.004 4.62218,3.61038 -8.17284,10.03241 -13.51889,-8.9163 z"
         style="fill:#ffde0e;fill-opacity:1;stroke:#800080;stroke-width:1.5;stroke-linecap:butt;stroke-linejoin:miter;stroke-miterlimit:4;stroke-dasharray:none;stroke-opacity:1" />
      <g
         aria-label="Já"
         transform="scale(0.99721547,1.0027923)"
         style="font-style:normal;font-weight:normal;font-size:14.15166378px;line-height:1.25;font-family:sans-serif;letter-spacing:0px;word-spacing:0px;fill:#1a1a1a;fill-opacity:1;stroke:none;stroke-width:0.35379159"
         id="text918">
        <path
           d="m 114.2996,119.13246 h 2.83788 q 0,0.0453 -0.0453,0.22643 -0.0302,0.16604 -0.0755,0.40756 -0.0453,0.24153 -0.0906,0.52833 -0.0302,0.28681 -0.0302,0.52833 0,0.15095 0.0302,0.317 0.0302,0.16604 0.10567,0.317 0.0755,0.13585 0.21133,0.24152 0.15095,0.0906 0.36228,0.0906 0.39248,0 0.6189,-0.317 0.24152,-0.33209 0.42266,-1.19251 l 1.52461,-7.18527 h 3.27564 l -1.47932,6.92865 q -0.19624,0.89061 -0.67928,1.44913 -0.48304,0.54342 -1.11704,0.84533 -0.6189,0.3019 -1.32837,0.39247 -0.70947,0.10567 -1.35856,0.10567 -0.75475,0 -1.29818,-0.10567 -0.54342,-0.0906 -0.96608,-0.27171 -0.40757,-0.18114 -0.73967,-0.43776 -0.33209,-0.27171 -0.66418,-0.58871 z"
           style="font-style:normal;font-variant:normal;font-weight:normal;font-stretch:normal;font-size:15.09510803px;font-family:'Racing Sans One';-inkscape-font-specification:'Racing Sans One';fill:#1a1a1a;stroke-width:0.35379159"
           id="path961"
           inkscape:connector-curvature="0" />
        <path
           d="m 124.07888,116.74743 q 0.76985,-0.37738 1.56989,-0.54342 0.81513,-0.18114 1.81141,-0.18114 0.96609,0 1.60008,0.15095 0.634,0.15095 1.01137,0.43776 0.37738,0.2868 0.52833,0.67928 0.15095,0.39247 0.15095,0.89061 0,0.2868 -0.0453,0.6189 -0.0302,0.33209 -0.0755,0.55852 l -0.70947,3.32092 h -2.43031 l -0.27171,-0.96609 h -0.0906 q -0.48305,0.52833 -1.13214,0.81514 -0.63399,0.27171 -1.26799,0.27171 -0.36228,0 -0.70947,-0.10567 -0.34718,-0.10566 -0.61889,-0.31699 -0.27172,-0.22643 -0.43776,-0.55852 -0.16605,-0.34719 -0.16605,-0.83023 0,-0.78495 0.42266,-1.2378 0.43776,-0.46795 1.13214,-0.69438 0.70947,-0.24152 1.58498,-0.3019 0.89061,-0.0604 1.78123,-0.0604 0.0302,-0.15095 0.0755,-0.42266 0.0453,-0.28681 0.0453,-0.49814 0,-0.27171 -0.15095,-0.49814 -0.13586,-0.24152 -0.58871,-0.24152 -0.52833,0 -0.78495,0.317 -0.24152,0.3019 -0.317,0.73966 h -2.20388 z m 3.47187,2.65674 h -0.27171 q -0.43776,0 -0.75476,0.12076 -0.3019,0.10567 -0.49814,0.28681 -0.18114,0.18114 -0.27171,0.40757 -0.0906,0.22642 -0.0906,0.45285 0,0.36228 0.18114,0.54342 0.19624,0.18115 0.45286,0.18115 0.31699,0 0.6189,-0.22643 0.31699,-0.22643 0.39247,-0.60381 z m -0.49814,-4.10587 1.40385,-2.20388 h 2.59635 l -2.70202,2.20388 z"
           style="font-style:normal;font-variant:normal;font-weight:normal;font-stretch:normal;font-size:15.09510803px;font-family:'Racing Sans One';-inkscape-font-specification:'Racing Sans One';fill:#1a1a1a;stroke-width:0.35379159"
           id="path963"
           inkscape:connector-curvature="0" />
      </g>
      <g
         aria-label="Já"
         transform="scale(0.99721547,1.0027923)"
         style="font-style:normal;font-weight:normal;font-size:14.15166378px;line-height:1.25;font-family:sans-serif;letter-spacing:0px;word-spacing:0px;fill:#800080;fill-opacity:1;stroke:none;stroke-width:0.35379159"
         id="text821">
        <path
           d="m 115.42705,118.51237 h 2.83788 q 0,0.0453 -0.0453,0.22643 -0.0302,0.16605 -0.0755,0.40757 -0.0453,0.24152 -0.0906,0.52833 -0.0302,0.2868 -0.0302,0.52832 0,0.15096 0.0302,0.317 0.0302,0.16605 0.10567,0.317 0.0755,0.13586 0.21133,0.24152 0.15095,0.0906 0.36228,0.0906 0.39248,0 0.6189,-0.317 0.24152,-0.33209 0.42267,-1.19251 l 1.5246,-7.18527 h 3.27564 l -1.47932,6.92865 q -0.19624,0.89062 -0.67928,1.44913 -0.48304,0.54343 -1.11704,0.84533 -0.6189,0.3019 -1.32837,0.39247 -0.70947,0.10567 -1.35856,0.10567 -0.75475,0 -1.29818,-0.10567 -0.54342,-0.0906 -0.96608,-0.27171 -0.40757,-0.18114 -0.73966,-0.43776 -0.3321,-0.27171 -0.66419,-0.58871 z"
           style="font-style:normal;font-variant:normal;font-weight:normal;font-stretch:normal;font-size:15.09510803px;font-family:'Racing Sans One';-inkscape-font-specification:'Racing Sans One';fill:#800080;stroke-width:0.35379159"
           id="path966"
           inkscape:connector-curvature="0" />
        <path
           d="m 125.20632,116.12735 q 0.76985,-0.37738 1.56989,-0.54343 0.81513,-0.18114 1.81141,-0.18114 0.96609,0 1.60008,0.15095 0.634,0.15095 1.01137,0.43776 0.37738,0.28681 0.52833,0.67928 0.15095,0.39247 0.15095,0.89061 0,0.28681 -0.0453,0.6189 -0.0302,0.33209 -0.0755,0.55852 l -0.70947,3.32092 h -2.43031 l -0.27171,-0.96608 h -0.0906 q -0.48305,0.52832 -1.13213,0.81513 -0.634,0.27171 -1.26799,0.27171 -0.36229,0 -0.70947,-0.10566 -0.34719,-0.10567 -0.6189,-0.317 -0.27172,-0.22643 -0.43776,-0.55852 -0.16605,-0.34719 -0.16605,-0.83023 0,-0.78494 0.42267,-1.2378 0.43775,-0.46795 1.13213,-0.69437 0.70947,-0.24152 1.58498,-0.30191 0.89062,-0.0604 1.78123,-0.0604 0.0302,-0.15095 0.0755,-0.42266 0.0453,-0.28681 0.0453,-0.49814 0,-0.27171 -0.15095,-0.49814 -0.13586,-0.24152 -0.58871,-0.24152 -0.52833,0 -0.78495,0.317 -0.24152,0.3019 -0.31699,0.73966 h -2.20389 z m 3.47187,2.65673 h -0.27171 q -0.43776,0 -0.75476,0.12077 -0.3019,0.10566 -0.49813,0.2868 -0.18115,0.18114 -0.27172,0.40757 -0.0906,0.22643 -0.0906,0.45285 0,0.36229 0.18114,0.54343 0.19624,0.18114 0.45286,0.18114 0.31699,0 0.6189,-0.22643 0.31699,-0.22642 0.39247,-0.6038 z m -0.49814,-4.10586 1.40385,-2.20389 h 2.59636 l -2.70203,2.20389 z"
           style="font-style:normal;font-variant:normal;font-weight:normal;font-stretch:normal;font-size:15.09510803px;font-family:'Racing Sans One';-inkscape-font-specification:'Racing Sans One';fill:#800080;stroke-width:0.35379159"
           id="path968"
           inkscape:connector-curvature="0" />
      </g>
    </g>
  </g>
</svg>
